<svg xmlns="http://www.w3.org/2000/svg" width="85.47" height="85.47" viewBox="0 0 85.47 85.47">
  <g id="تركيب_المطابخ_والستلايت_" data-name="تركيب المطابخ والستلايت  " transform="translate(-246.265 -3125.265)">
    <path id="Path_211" data-name="Path 211" d="M17,0H68.47a17,17,0,0,1,17,17V68.47a17,17,0,0,1-17,17H17a17,17,0,0,1-17-17V17A17,17,0,0,1,17,0Z" transform="translate(246.265 3125.265)" fill="#1c4f9e"/>
    <g id="kitchen" transform="translate(262.676 3141.676)">
      <path id="Path_212" data-name="Path 212" d="M258.226,240v4.113a2.057,2.057,0,0,1-2.057,2.057v2.057h-4.113V246.17A2.057,2.057,0,0,1,250,244.113V240Z" transform="translate(-224.293 -215.322)" fill="#dae9ff"/>
      <path id="Path_213" data-name="Path 213" d="M285.141,240v4.113a2.057,2.057,0,0,1-2.057,2.057V247.2H280V246.17a2.057,2.057,0,0,0,2.057-2.057V240Z" transform="translate(-251.208 -215.322)" fill="#c5d5fd"/>
      <path id="Path_214" data-name="Path 214" d="M263.393,133.271v3.085a1.8,1.8,0,0,1-1.8,1.8h-8.226a1.8,1.8,0,0,1-1.8-1.8v-3.085a.771.771,0,1,1,1.542,0v3.085a.257.257,0,0,0,.257.257h8.226a.257.257,0,0,0,.257-.257v-3.085a.771.771,0,1,1,1.542,0Zm-13.882,9.511h-3.6v-.257a.771.771,0,1,0-1.542,0v.257h-3.6a.771.771,0,0,0,0,1.542h8.74a.771.771,0,0,0,0-1.542Z" transform="translate(-215.322 -118.875)" fill="#fff"/>
      <path id="Path_215" data-name="Path 215" d="M43.882,150.326H30.514a.514.514,0,0,1-.514-.514v-19.3a.514.514,0,0,1,.514-.514H43.882a.514.514,0,0,1,.514.514v19.3A.514.514,0,0,1,43.882,150.326Z" transform="translate(-26.915 -116.632)" fill="#175bc2"/>
      <path id="Path_216" data-name="Path 216" d="M76.478,32.391V49.871a.514.514,0,0,1-.514.514H30.514A.514.514,0,0,1,30,49.871V32.391a.514.514,0,0,1,.514-.514h45.45A.514.514,0,0,1,76.478,32.391ZM75.964,0H30.514A.514.514,0,0,0,30,.514V13.882a.514.514,0,0,0,.514.514h45.45a.514.514,0,0,0,.514-.514V.514A.514.514,0,0,0,75.964,0Z" transform="translate(-26.915 0)" fill="#dae9ff"/>
      <path id="Path_217" data-name="Path 217" d="M445.814,32.391V49.871a.514.514,0,0,1-.514.514h-3.633a.514.514,0,0,0,.514-.514V32.391a.514.514,0,0,0-.514-.514H445.3A.514.514,0,0,1,445.814,32.391ZM445.3,0h-3.633a.514.514,0,0,1,.514.514V13.882a.514.514,0,0,1-.514.514H445.3a.514.514,0,0,0,.514-.514V.514A.514.514,0,0,0,445.3,0Z" transform="translate(-396.252 0)" fill="#175bc2"/>
      <path id="Path_218" data-name="Path 218" d="M162.5,0h1.542V14.4H162.5Zm17.686,0V14.4h1.542V0Zm-8.072,33.162a.771.771,0,0,0-.771.771V49.357a.771.771,0,0,0,1.542,0V33.933a.771.771,0,0,0-.771-.771Z" transform="translate(-145.791 0)" fill="#175bc2"/>
      <path id="Path_219" data-name="Path 219" d="M385.141,178.226h-4.113A1.028,1.028,0,0,1,380,177.2v-6.17A1.028,1.028,0,0,1,381.028,170h4.113a1.028,1.028,0,0,1,1.028,1.028v6.17A1.028,1.028,0,0,1,385.141,178.226Z" transform="translate(-340.926 -152.519)" fill="#ec6869"/>
      <path id="Path_220" data-name="Path 220" d="M386.17,171.028v6.17a1.028,1.028,0,0,1-1.028,1.028h-4.113A1.028,1.028,0,0,1,380,177.2v-1.2a3.085,3.085,0,0,0,4.113-2.909V170h1.028A1.028,1.028,0,0,1,386.17,171.028Z" transform="translate(-340.926 -152.519)" fill="#ed5454"/>
      <path id="Path_221" data-name="Path 221" d="M69.627,178.082H67.571A2.571,2.571,0,0,1,65,175.511a.514.514,0,0,1,.514-.514h6.17a.514.514,0,0,1,.514.514A2.571,2.571,0,0,1,69.627,178.082Z" transform="translate(-58.316 -157.003)" fill="#ec6869"/>
      <path id="Path_222" data-name="Path 222" d="M72.2,206.684a3.6,3.6,0,0,1-7.2,0,.514.514,0,0,1,.514-.514h6.17A.514.514,0,0,1,72.2,206.684ZM71.684,200h-6.17a.514.514,0,0,0-.514.514,2.571,2.571,0,0,0,2.571,2.571h2.057a2.571,2.571,0,0,0,2.571-2.571A.514.514,0,0,0,71.684,200Z" transform="translate(-58.316 -179.435)" fill="#ec6869"/>
      <path id="Path_223" data-name="Path 223" d="M44.4,222.5v1.542H30V222.5Z" transform="translate(-26.915 -199.621)" fill="#dae9ff"/>
      <path id="Path_224" data-name="Path 224" d="M52.647.514V3.6a.514.514,0,0,1-.514.514H.514A.514.514,0,0,1,0,3.6V.514A.514.514,0,0,1,.514,0H52.133A.514.514,0,0,1,52.647.514Zm-.514,30.334H.514A.514.514,0,0,0,0,31.362v3.085a.514.514,0,0,0,.514.514H52.133a.514.514,0,0,0,.514-.514V31.362A.514.514,0,0,0,52.133,30.848Zm0,17.686H.514A.514.514,0,0,0,0,49.049v3.085a.514.514,0,0,0,.514.514H52.133a.514.514,0,0,0,.514-.514V49.049A.514.514,0,0,0,52.133,48.534Z" transform="translate(0 0)" fill="#175bc2"/>
      <path id="Path_225" data-name="Path 225" d="M480.6.514V3.6a.514.514,0,0,1-.514.514H477a.514.514,0,0,0,.514-.514V.514A.514.514,0,0,0,477,0h3.085A.514.514,0,0,1,480.6.514Zm-.514,30.334H477a.514.514,0,0,1,.514.514v3.085a.514.514,0,0,1-.514.514h3.085a.514.514,0,0,0,.514-.514V31.362A.514.514,0,0,0,480.085,30.848Zm0,17.686H477a.514.514,0,0,1,.514.514v3.085a.514.514,0,0,1-.514.514h3.085a.514.514,0,0,0,.514-.514V49.049A.514.514,0,0,0,480.085,48.534Z" transform="translate(-427.951 0)" fill="#175bc2"/>
      <path id="Path_226" data-name="Path 226" d="M88.438,131.035v4.113a.771.771,0,0,1-1.542,0v-4.113a.771.771,0,0,1,1.542,0Zm6.427-.771a.771.771,0,0,0-.771.771v4.113a.771.771,0,0,0,1.542,0v-4.113A.771.771,0,0,0,94.865,130.263Zm.617-27.763H87.256a.771.771,0,0,0,0,1.542h8.226a.771.771,0,0,0,0-1.542Zm-18.1,0H73.271a.771.771,0,0,0,0,1.542h4.113a.771.771,0,0,0,0-1.542Zm31.876,0h-4.113a.771.771,0,1,0,0,1.542h4.113a.771.771,0,0,0,0-1.542Z" transform="translate(-65.045 -91.96)" fill="#175bc2"/>
    </g>
  </g>
</svg>
