<svg xmlns="http://www.w3.org/2000/svg" width="85.47" height="85.47" viewBox="0 0 85.47 85.47">
  <g id="المسابح_والمصاعد_" data-name="المسابح والمصاعد " transform="translate(-289.53 -2411.53)">
    <path id="Path_606" data-name="Path 606" d="M16,0H69.47a16,16,0,0,1,16,16V69.47a16,16,0,0,1-16,16H16a16,16,0,0,1-16-16V16A16,16,0,0,1,16,0Z" transform="translate(289.53 2411.53)" fill="#1c4f9e"/>
    <path id="Path_608" data-name="Path 608" d="M116.253,138.372a4.8,4.8,0,0,0-2.4-1.243c-1.64-.555-3.313-1.028-4.969-1.535q-4.055-1.24-8.113-2.466c-.055-2.411-1.458-4.672-4.067-4.723a3.511,3.511,0,0,0-2.388,1,3.894,3.894,0,0,0-7.248-.429,18.256,18.256,0,0,0-4.1-1.183c-1.334-.088-2.686,1.169-3.693,1.867q-3.834,2.658-7.674,5.305-9.314,6.434-18.612,12.891c-1.441,1.005-5.971,3.174-5.337,5.4.609,2.134,3.79,3.77,5.482,5.049q8.629,6.525,17.308,12.983c5.176,3.867,10.247,8.017,15.625,11.6,2.8,1.863,4.382-.349,5.812-2.69q2.387-3.908,4.772-7.818,6.069-9.945,12.143-19.886,2.546-4.167,5.1-8.326C114.694,142.856,117.385,139.955,116.253,138.372Zm-25.944-8.408c.022-.023.041-.048.064-.07.588-.556,1.049-.054,1.34.495Zm6.1,1.844a.843.843,0,0,1,.721-.3c.357.052.6.395.762.75Z" transform="translate(250.208 2299.122)" fill="#175bc2"/>
    <path id="Path_609" data-name="Path 609" d="M322.524,407.295a7.078,7.078,0,0,0-4.314-4.132,13.715,13.715,0,0,0-11.183.588c-1.742,1.006-3.8,2.769-3.572,5.031.256,2.521,2.521,4.321,4.791,5.1a13.588,13.588,0,0,0,11.968-1.321C321.771,411.32,323.248,409.419,322.524,407.295Zm-4.77,1.445a4.257,4.257,0,0,1-2.488,1.676,7.782,7.782,0,0,1-6.657-.856c-1.995-1.385-.583-3.415,1.053-4.234,1.938-.97,5.246-1.074,7.083.223C318.107,406.511,318.407,407.679,317.754,408.74Z" transform="translate(13.851 2044.563)" fill="#d65556"/>
    <path id="Path_610" data-name="Path 610" d="M370.5,445.64a7.932,7.932,0,0,1,4-.324c1.311.182,3.852,1.311,2.465,2.885-1.983-1.979-6.141-1.84-8.091.1C367.612,447.1,369.738,445.948,370.5,445.64Z" transform="translate(-46.235 2004.884)" fill="#d65556"/>
    <path id="Path_611" data-name="Path 611" d="M383.286,478.443a4.883,4.883,0,0,1,2.084-.99q-.7.654-1.4,1.308c-.232-.095-.46-.2-.684-.315Zm1.9.665a4.6,4.6,0,0,1-.657-.149q.878-.827,1.76-1.65a4.655,4.655,0,0,1,3.693,1.093A7.787,7.787,0,0,1,385.191,479.107Z" transform="translate(-59.914 1975.249)" fill="#dae9ff"/>
    <path id="Path_612" data-name="Path 612" d="M648.643,164.421l-.925-.28c-.287-.816-.8-1.911-1.81-1.948-1.111-.041-1.891,1.038-2.169,2-1.142,4.3-.878,8.962-.947,13.368-.006.406-.18.7-.617.718s-.575-.249-.561-.63c.093-2.7.046-5.48.17-8.231a.5.5,0,0,0,.009-.183,40.532,40.532,0,0,1,.485-4.81,4.855,4.855,0,0,1,.9-2.276C645.411,159.365,648.4,161.571,648.643,164.421Z" transform="translate(-298.557 2267.56)" fill="#ec6869"/>
    <path id="Path_613" data-name="Path 613" d="M321.431,416.143c-6.276-4.358-12.6-8.675-18.854-13.077-1.03-.725-1.031-.933-.232-1.739s1.6-1.6,2.416-2.39a14.111,14.111,0,0,0,14.377-.609.5.5,0,0,0,.059-.049c.01-.007.02-.012.03-.019,3.849-3.015,3.386-7.468-.638-10.084a10.132,10.132,0,0,0-1.5-.8c.365-.336.73-.671,1.092-1.009.467-.436.484-.373,1.031-.149,5.988,2.452,11.908,5.1,17.822,7.721-4.508,7.231-8.965,14.495-13.587,21.652C322.746,416.671,322.417,416.828,321.431,416.143Z" transform="translate(15.389 2059.54)" fill="#dae9ff"/>
    <path id="Path_614" data-name="Path 614" d="M159.358,202.876c-.031.5-.053.994-.078,1.491a7,7,0,0,0-2.383-.532c-.058-.731-.128-1.461-.217-2.187q1.351.414,2.7.824C159.375,202.607,159.367,202.742,159.358,202.876Zm-3.205-1.231c.088.716.158,1.435.215,2.156a.277.277,0,0,0-.091.019,20.6,20.6,0,0,0-3.553,2.456c-1.159.81-2.466,1.4-3.576,2.282a13.692,13.692,0,0,0-1.47,1.354,9.94,9.94,0,0,1-2.1,1.452,14.607,14.607,0,0,0-1.453,1.206,13.736,13.736,0,0,1-2.495,1.436,15.018,15.018,0,0,0-3.385,2.423c-1.048,1.009-2.434,1.6-3.548,2.547-1.147.971-2.456,1.625-3.613,2.547a7.4,7.4,0,0,1-1.841,1.23,5.32,5.32,0,0,0-1.174.659l-.809-.605c-.683-.511-.615-.751.029-1.2,5.662-3.965,11.361-7.879,17.048-11.809q4.628-3.2,9.258-6.392,1.246-.859,2.493-1.716c.026-.018.045-.029.067-.043Z" transform="translate(177.053 2229.888)" fill="#dae9ff"/>
    <path id="Path_615" data-name="Path 615" d="M160.674,255.815c1.074-.965,2.449-1.568,3.569-2.516,1.023-.866,2.216-1.445,3.243-2.281a26.671,26.671,0,0,1,3.894-2.872,18.025,18.025,0,0,0,3.275-2.1,10.9,10.9,0,0,1,2.015-1.294,7.244,7.244,0,0,0,1.441-1.374,23.57,23.57,0,0,1,4.03-2.741c.875-.565,1.657-1.284,2.509-1.884,1.383-.975,1.267-.538,1.32.447.158,2.916.151,5.855.22,8.763a1.34,1.34,0,0,1-.407,1.221c-.47.442-.945.877-1.42,1.314a14.729,14.729,0,0,0-11.89,1.083c-4.069,2.349-4.886,7.35-.774,10.147.137.093.281.174.422.262-1.114,1.086-2.22,2.181-3.3,3.3q-4.854-3.434-9.629-6.972C157.985,257.425,159.166,257.168,160.674,255.815Zm43.266.484c-5.5-2.443-11.018-4.891-16.589-7.176-.474-.194-.619-.432-.639-1.31-.066-2.916-.061-5.864-.225-8.786-.051-.9.133-1.011.865-.862a6.988,6.988,0,0,1,1.386.444c-.123,2.689-.175,5.384-.267,8.072a1.381,1.381,0,0,0,1.439,1.508,1.506,1.506,0,0,0,1.494-1.6c0-.12.007-.24.011-.359,1.073.443,2.146.891,3.242,1.275-.015.5-.028,1-.045,1.5a1.381,1.381,0,0,0,1.439,1.507,1.506,1.506,0,0,0,1.494-1.6c.037-2.375-.027-4.836.093-7.271,1.167.343,2.248.929,3.424,1.258a29.649,29.649,0,0,1,4.422,1.317,12.775,12.775,0,0,0,3.5.953,8.84,8.84,0,0,1,1.693.469c1.075.387,1.126.653.32,1.909q-2.484,3.873-4.922,7.775C205.244,256.646,205.157,256.839,203.939,256.3Z" transform="translate(147.568 2196.202)" fill="#dae9ff"/>
    <path id="Path_616" data-name="Path 616" d="M597.137,179.54l3.092.935a8.918,8.918,0,0,0-.321,1.448c-1.05-.346-2.1-.688-3.141-1.069A6.324,6.324,0,0,1,597.137,179.54Z" transform="translate(-257.129 2250.308)" fill="#dae9ff"/>
    <path id="Path_617" data-name="Path 617" d="M579.848,313.267c-.014-.142-.029-.6.144-.549.4.122.788.324,1.173.482.865.354,1.732.708,2.615,1.015-.012.43-.025.86-.037,1.29-.721-.26-1.433-.543-2.143-.831C580.831,314.361,579.946,314.225,579.848,313.267Z" transform="translate(-241.492 2127.281)" fill="#ec6869"/>
    <path id="Path_618" data-name="Path 618" d="M594.083,239.028q-.025.429-.046.858c-1.108-.372-2.214-.752-3.3-1.176q.016-.406.04-.812C591.864,238.309,592.979,238.661,594.083,239.028Z" transform="translate(-251.556 2196.397)" fill="#175bc2"/>
    <path id="Path_619" data-name="Path 619" d="M581.3,258.581c.372.109.737.284,1.1.417.853.311,1.713.605,2.575.895-.02.456-.034.913-.051,1.37-.737-.245-1.474-.49-2.208-.744-.7-.241-1.686-.343-1.738-1.218C580.967,259.115,581.012,258.5,581.3,258.581Z" transform="translate(-242.542 2177.297)" fill="#ec6869"/>
    <path id="Path_620" data-name="Path 620" d="M592.411,292.316q-.018.551-.035,1.1c-1.1-.391-2.18-.845-3.259-1.29q.011-.465.023-.93C590.217,291.605,591.319,291.954,592.411,292.316Z" transform="translate(-250.062 2147.158)" fill="#dae9ff"/>
    <path id="Path_621" data-name="Path 621" d="M583.344,205.839c.4.153.8.291,1.209.43.758.261,1.521.509,2.282.761-.042.47-.07.938-.1,1.4-.8-.268-1.61-.536-2.412-.814s-1.726-.4-1.582-1.443C582.805,205.7,582.961,205.692,583.344,205.839Z" transform="translate(-244.158 2226.09)" fill="#ec6869"/>
    <path id="Path_622" data-name="Path 622" d="M684.785,255.238a32.167,32.167,0,0,0-3.112-.963,17.921,17.921,0,0,1-4.237-1.284,18.937,18.937,0,0,0-3.682-.986c-1.229-.272-2.326-.94-3.533-1.286.045-.741.109-1.478.2-2.209q7.814,2.383,15.625,4.778C685.623,253.936,685.205,254.588,684.785,255.238Z" transform="translate(-324.987 2186.594)" fill="#dae9ff"/>
    <path id="Path_623" data-name="Path 623" d="M562.349,139c1.679-2.622,4.837-1.649,5.606,1.1a4.985,4.985,0,0,0-.424.687l-.414-.125c-.335-.94-.923-2.038-2.081-1.917-1.436.15-1.9,1.84-2.147,3.043-.529.016-.895.376-1.049,1.058a1.771,1.771,0,0,0,.63,1.88c-.03.392-.049.784-.065,1.176a1.417,1.417,0,0,0-.709,1.088,1.759,1.759,0,0,0,.618,1.785q-.016.612-.031,1.224c-.394.116-.636.507-.7,1.092a1.964,1.964,0,0,0,.64,1.7c-.005.275-.021.549-.026.823-.006.406-.18.7-.617.718s-.575-.249-.561-.63c.142-4.135-.009-8.412.6-12.516A5.466,5.466,0,0,1,562.349,139Z" transform="translate(-224.103 2289.183)" fill="#ec6869"/>
    <path id="Path_624" data-name="Path 624" d="M125.726,167.537q-5.451,8.868-10.864,17.759-5.581,9.14-11.159,18.282c-.821,1.345-1.664,3.426-3.194,4.031-1.33.525-3.327-1.52-4.315-2.255q-3.637-2.706-7.271-5.417-8.746-6.524-17.475-13.07-3.615-2.714-7.22-5.442a33.563,33.563,0,0,1-3.192-2.548c-1.854-1.8,1.843-3.655,3.166-4.581q8.936-6.252,17.927-12.427,4.013-2.772,8.025-5.545c1.162-.8,2.306-1.651,3.521-2.373,1.5-.889,3.463.169,5.017.7a11.221,11.221,0,0,0-.447,2.547l-2.313-.7c-.7-.214-.811-.4-1.607.141q-.824.565-1.646,1.133-4.687,3.229-9.368,6.466c-6.193,4.279-12.4,8.539-18.562,12.863-.611.428-.675.933-.108,1.364,10.931,8.3,22.356,15.99,33.631,23.819,1.51,1.049,1.889.852,2.978-.834,7.5-11.6,14.555-23.49,22.1-35.063.609-.934.688-1.3-.593-1.7-5.146-1.589-10.3-3.151-15.451-4.722a22.314,22.314,0,0,1,.467-2.24,2.715,2.715,0,0,1,.1-.285q7.114,2.151,14.223,4.32c1.2.368,2.519.664,3.734,1.122,1.367.516,2.1,1.116,1.135,2.785-.449.773-1.028,1.53-1.24,1.875Z" transform="translate(238.255 2274.264)" fill="#dae9ff"/>
    <path id="Path_625" data-name="Path 625" d="M322.524,434.946a6.3,6.3,0,0,0-1.948-2.76,5.633,5.633,0,0,1,1.732,3.74c.018,1.591-1.629,2.839-2.862,3.541a14.364,14.364,0,0,1-12.812.19,5.05,5.05,0,0,1-2.6-3.325,4.859,4.859,0,0,1,.2-2.53,3.835,3.835,0,0,0-.775,2.631c.256,2.521,2.521,4.321,4.791,5.1a13.588,13.588,0,0,0,11.968-1.321C321.772,438.97,323.248,437.069,322.524,434.946Z" transform="translate(13.85 2016.912)" fill="#ec6869"/>
    <path id="Path_626" data-name="Path 626" d="M358.148,427.261c1.938-.97,5.246-1.074,7.083.223,1.362.962,1.663,2.13,1.009,3.191a3.451,3.451,0,0,1-1.309,1.187,3.152,3.152,0,0,0,1.914-1.639,2.392,2.392,0,0,0-.973-2.87,7.788,7.788,0,0,0-7.49-.715,3.852,3.852,0,0,0-2.4,2.415,1.6,1.6,0,0,0,.205,1.294C355.832,429.158,356.928,427.872,358.148,427.261Z" transform="translate(-34.636 2022.628)" fill="#ec6869"/>
    <path id="Path_627" data-name="Path 627" d="M335.576,411.248a12.764,12.764,0,0,1,12.873-.11c.978.66,1.068.555.254-.252-3.051-3.025-10.5-3.04-13.457-.154C334.314,411.64,334.535,411.9,335.576,411.248Z" transform="translate(-14.99 2038.708)" fill="#e88485"/>
    <path id="Path_628" data-name="Path 628" d="M375.26,456.63a5.161,5.161,0,0,0-4.067,2.012,1.572,1.572,0,0,0,.181.207c1.95-1.941,6.109-2.08,8.091-.1a1.826,1.826,0,0,0,.293-.435C378.911,456.964,376.622,456.567,375.26,456.63Z" transform="translate(-48.742 1994.336)" fill="#ec6869"/>
    <g id="Group_165" data-name="Group 165" transform="translate(337.297 2427.422)">
      <path id="Path_629" data-name="Path 629" d="M567.048,155.357c.016-.392.035-.784.065-1.176a1.6,1.6,0,0,1-.5-.586c-.038.748-.046,1.5-.059,2.239A1.117,1.117,0,0,1,567.048,155.357Zm1.806,6.874c.71.289,1.422.571,2.143.831q.008-.274.016-.547a17.09,17.09,0,0,0-1.65-.6,4.5,4.5,0,0,1-2.267-1.193c0,.039,0,.075.006.1C567.2,161.782,568.085,161.918,568.855,162.231Zm.065-4.14c.734.254,1.471.5,2.208.744.008-.219.016-.438.024-.657-.62-.221-1.281-.348-1.91-.531a3.85,3.85,0,0,1-2.057-.948,1.5,1.5,0,0,0,0,.173C567.234,157.748,568.223,157.85,568.92,158.091Zm-1.993,1.363q.015-.612.031-1.224a1.554,1.554,0,0,1-.457-.537q-.038,1.093-.077,2.186A.856.856,0,0,1,566.927,159.454Zm1.984-5.476c.8.278,1.607.546,2.412.814.011-.179.027-.364.039-.546-.633-.151-1.251-.365-1.871-.562a4.364,4.364,0,0,1-2.175-.989C567.287,153.593,568.16,153.717,568.911,153.977Zm-2.689,9.811c.437-.022.611-.312.617-.718,0-.275.02-.548.026-.823a1.894,1.894,0,0,1-.47-.64,4.967,4.967,0,0,1-.352,2.168A.719.719,0,0,0,566.222,163.788ZM572.682,160c-.031,1.114-.038,2.229-.04,3.344,0,.528,0,1.057-.01,1.585a2.492,2.492,0,0,1-.266,1.186c.434-.023.607-.313.613-.717.069-4.405-.195-9.073.947-13.368.278-.961,1.059-2.04,2.169-2,1.01.037,1.523,1.133,1.81,1.948l.216.065c-.221-1.369-.961-2.7-2.556-2.445-1.627.26-2.021,2.21-2.3,3.555A39.535,39.535,0,0,0,572.682,160Zm-5.709-9.079c-.054.212-.1.427-.138.642a.946.946,0,0,1,.7-.318c.252-1.2.712-2.892,2.147-3.043,1.158-.121,1.746.977,2.081,1.917l.38.115c-.369-1.194-1.2-2.545-2.574-2.533C568.073,147.711,567.273,149.752,566.973,150.918Z" transform="translate(-566.043 -147.698)" fill="#d65556"/>
    </g>
    <path id="Path_630" data-name="Path 630" d="M188.657,227.652l.339-.524-.279-.087a31.7,31.7,0,0,0-3.078-.882c-1.278-.277-2.437-.982-3.694-1.346-1.681-.487-3.409-.735-5.072-1.3-.911-.308-1.828-.595-2.742-.894-.012.171-.028.34-.038.511,1.207.347,2.3,1.015,3.533,1.286a18.936,18.936,0,0,1,3.682.986,17.915,17.915,0,0,0,4.237,1.284,32.112,32.112,0,0,1,3.112.963Zm-17.292-6.018c-1.1-.422-2.2-.818-3.3-1.226-.009.173-.019.346-.026.519,1.089.424,2.2.8,3.3,1.176C171.348,221.947,171.356,221.79,171.365,221.634Zm-8.556-2.091a7,7,0,0,1,2.383.532c.012-.241.026-.482.038-.723-.233-.075-.468-.145-.708-.2-.409-.1-1.356-.039-1.78-.366C162.765,219.038,162.789,219.29,162.809,219.543Zm-15.27,10.171a13.733,13.733,0,0,0,2.495-1.436,14.608,14.608,0,0,1,1.453-1.206,9.934,9.934,0,0,0,2.1-1.452,13.7,13.7,0,0,1,1.47-1.354c1.11-.879,2.417-1.472,3.576-2.282a20.589,20.589,0,0,1,3.553-2.456.276.276,0,0,1,.091-.019q-.035-.43-.077-.86a23.857,23.857,0,0,0-3.662,2.426,39.383,39.383,0,0,1-3.953,2.388,21.344,21.344,0,0,0-3.518,2.86,27.02,27.02,0,0,1-4.389,2.854c-1.388.855-2.626,1.944-3.919,2.93-1.424,1.086-2.956,2.039-4.447,3.028s-2.977,2-4.507,2.935a6.614,6.614,0,0,0-.635.447l.8.6a5.32,5.32,0,0,1,1.174-.659,7.407,7.407,0,0,0,1.841-1.23c1.157-.921,2.466-1.575,3.613-2.547,1.114-.944,2.5-1.538,3.548-2.547a15.028,15.028,0,0,1,3.385-2.423Z" transform="translate(171.142 2214.179)" fill="#bacde8"/>
    <path id="Path_631" data-name="Path 631" d="M159.186,258.316q4.77,3.542,9.629,6.972c.835-.859,1.684-1.7,2.538-2.542-1,.076-1.974.364-2.983.343-1.5-.031-2.92-1.266-3.937-2.244-1.362-1.311-2.83-3.236-1.724-5.124.765-1.306,2.232-2.171,3.411-3.055a6.809,6.809,0,0,0,2.318-2.431c-.314.257-.63.519-.953.783-1.027.836-2.22,1.415-3.243,2.281-1.119.948-2.494,1.55-3.569,2.516C159.166,257.168,157.985,257.424,159.186,258.316ZM183.2,239.869c.666-.295,1.365-.5,1.845-.057.579.535.5,1.791.529,2.508a24.435,24.435,0,0,0,.3,2.693c.073.488.185.987.286,1.49-.042-2.429-.061-4.872-.192-7.3-.053-.984.063-1.422-1.32-.447C184.154,239.105,183.68,239.493,183.2,239.869Zm8.065,39.058c4.622-7.157,9.079-14.42,13.587-21.652-4.772-2.116-9.549-4.242-14.361-6.275.51.261,1.038.5,1.578.716,1.388.773,2.748,1.6,4.088,2.381a21.648,21.648,0,0,1,4.125,2.865,3.934,3.934,0,0,1,1.364,2.627,5.091,5.091,0,0,1-.916,2.658c-1.831,3.259-3.811,6.453-5.954,9.517-1.19,1.7-2.464,3.938-4.61,4.473-2.194.547-4.58-.776-6.386-1.865-2.493-1.5-4.885-3.231-7.279-4.886-1.943-1.343-5.588-3.513-4.807-6.333-.51.5-1.022,1-1.526,1.51-.8.806-.8,1.014.232,1.739,6.257,4.4,12.577,8.719,18.854,13.077C190.238,280.165,190.567,280.008,191.265,278.927Zm19.407-33.285a8.831,8.831,0,0,0-1.693-.469c-.508-.075-.991-.163-1.464-.274,1.374,2.01.3,3.055-1.786,6.348-.894,1.412-1.764,2.563-3.573,2.619a16.1,16.1,0,0,1-3.552-.6c-1.2-.242-2.378-.544-3.551-.878,2.97,1.289,5.93,2.6,8.887,3.913,1.218.54,1.305.347,2.131-.972q2.441-3.9,4.922-7.775C211.8,246.3,211.747,246.029,210.672,245.642Zm-23.438-5.849a1.72,1.72,0,0,1,1.2-1.311,6.75,6.75,0,0,0-1.079-.319c-.732-.149-.916-.036-.865.862.163,2.886.16,5.8.223,8.676a25.2,25.2,0,0,0,.322-4.846A13.909,13.909,0,0,1,187.234,239.794Z" transform="translate(147.568 2196.203)" fill="#bacde8"/>
    <path id="Path_632" data-name="Path 632" d="M347.459,299.932c-.419-.086-.854-.05-1.276-.115-1.14-.175-.264-1.117.107-1.57,1.511-1.845-.915-4.311-2.923-4.087-.986.11-.9.679-.456,1.412.821,1.358.36,1.625-.006,1.913a2.592,2.592,0,0,0-1.168,2.508c.087,1.1-.022,2.019-1.083,2.581-.788.417-1.791.324-2.553.747-.947.525-1.188,1.626-2.417,1.743-.922.088-1.832-.561-2.778-.565-1.267,0-.89,1.171-.219,1.713a2.513,2.513,0,0,0,1.829.6,4.914,4.914,0,0,0,1.013-.28c1.142-.38,2.325-.663,1.736.438a2.3,2.3,0,0,0,.681,3.22,1.652,1.652,0,0,0,2.551-1.037,19.3,19.3,0,0,1-.036-2.041c.246-1.082,2.08-.844,2.891-.969,1.43-.222,1.406-1.359,1.385-2.511-.029-1.578,2.2-1.525,3.058-2.5C348.268,300.6,348.166,300.078,347.459,299.932Zm6.729-12.514c1.111-.033,3.015.215,3.17-1.36.045-.461-.523-.793-.905-.835a4.286,4.286,0,0,1-1.659-.318,3.985,3.985,0,0,1-.9-.83,4.375,4.375,0,0,0-2.184-1.458c-1.007-.1-1.39.943-.124,1.536.92.432.812,1.172-.054,1.8a3.848,3.848,0,0,0-1.349,1.32c-.8,1.508.391,2.8,1.828,3.083.584.116,3.026.374,2.905-.776-.046-.435-.386-.6-.77-.724a2.607,2.607,0,0,1-1.026-.414C352.274,287.708,353.733,287.432,354.188,287.419Zm-19.362-3.678c-.851-.771-.216-1.5.243-2.245.8-1.291.3-2.37-1.4-1.235-.519.346-.717,1.177-.949,1.66-.873,1.816-3.458,1.589-4.888,2.736a20.513,20.513,0,0,1-2.665,2.333,13.048,13.048,0,0,0-2.149,1.086c-1.272,1.048-.653,1.589.824.8a13.553,13.553,0,0,1,2.343-1.3,6.11,6.11,0,0,0,2.309-1.007,3.533,3.533,0,0,1,3.66-.069,3.323,3.323,0,0,0,2.5.3,1.87,1.87,0,0,0,1.252-1.368C335.976,284.626,335.379,284.241,334.827,283.74Z" transform="translate(-3.605 2157.704)" fill="#175bc2"/>
    <path id="Path_633" data-name="Path 633" d="M125.739,282.506c.212-.345.791-1.1,1.24-1.875.839-1.447.4-2.09-.626-2.572a3.858,3.858,0,0,1,.045.955,6.8,6.8,0,0,1-1.146,2.782c-1.076,1.9-2.2,3.769-3.326,5.638-3.33,5.537-6.722,11.037-10.124,16.529q-4.277,6.905-8.606,13.779c-.721,1.138-1.585,2.95-2.729,3.666-.943.59-2.362-.717-3.155-1.27-.685-.477-1.363-.964-2.041-1.451Q80.864,308.33,66.822,297.479c-1.2-.93-2.407-1.86-3.579-2.828a11.2,11.2,0,0,1-2.1-2.047,1.721,1.721,0,0,1-.3-.694,1.374,1.374,0,0,0,.2,1.936,33.576,33.576,0,0,0,3.192,2.548q3.6,2.731,7.22,5.442,8.726,6.551,17.475,13.069,3.634,2.711,7.271,5.418c.988.735,2.985,2.78,4.315,2.255,1.53-.6,2.373-2.686,3.194-4.031q5.581-9.14,11.159-18.282Q120.3,291.381,125.739,282.506Z" transform="translate(238.242 2159.296)" fill="#bacde8"/>
    <path id="Path_634" data-name="Path 634" d="M289.668,185.687c5.151,1.571,10.3,3.134,15.451,4.722.559.172.858.34.969.551a.8.8,0,0,0-.065-.243.906.906,0,0,0-.06-.11.754.754,0,0,0-.079-.1,2.352,2.352,0,0,0-1.037-.668c-1.045-.391-2.1-.748-3.161-1.1-3.151-1.061-6.317-2.079-9.486-3.088-.795-.253-1.591-.5-2.387-.753C289.761,185.16,289.71,185.423,289.668,185.687Zm-23.995,4.273q4.683-3.235,9.368-6.466.823-.567,1.646-1.133c.8-.544.9-.355,1.607-.141l2.313.7c.022-.275.052-.551.087-.825-.178-.051-.355-.1-.533-.153-1.525-.422-2.82-.823-4.292-.056a39.928,39.928,0,0,0-4.927,3.5q-3.186,2.354-6.34,4.751-3.359,2.552-6.674,5.16,3.872-2.674,7.745-5.346Z" transform="translate(55.893 2248.537)" fill="#175bc2"/>
  </g>
</svg>
