<svg xmlns="http://www.w3.org/2000/svg" width="85.47" height="85.47" viewBox="0 0 85.47 85.47">
  <g id="السحب_وتأجير_المعدات_" data-name="السحب وتأجير المعدات " transform="translate(-328.265 -559)">
    <path id="Path_125" data-name="Path 125" d="M17,0H68.47a17,17,0,0,1,17,17V68.47a17,17,0,0,1-17,17H17a17,17,0,0,1-17-17V17A17,17,0,0,1,17,0Z" transform="translate(328.265 559)" fill="#1c4f9e"/>
    <g id="tow" transform="translate(269.304 126.894)">
      <g id="Tow_truck" data-name="Tow truck" transform="translate(68.47 455.39)">
        <path id="Path_126" data-name="Path 126" d="M192.2,516.279l-27.946-9.539-.384,2.561,28.33,10.98Z" transform="translate(-160.463 -504.906)" fill="#175bc2"/>
        <path id="Path_127" data-name="Path 127" d="M296.639,507.713a.367.367,0,0,1-.1-.013l-24.1-6.641a.357.357,0,0,1,.19-.689l24.1,6.643a.357.357,0,0,1-.095.7Z" transform="translate(-264.902 -498.751)" fill="#175bc2"/>
        <path id="Path_128" data-name="Path 128" d="M137.793,465.807l7.692,1.969L145,469.668l-7.693-1.969Z" transform="translate(-134.85 -465.435)" fill="#175bc2"/>
        <path id="Path_129" data-name="Path 129" d="M141.436,531.419a.357.357,0,0,1-.3-.168l-13.159-21v12.287a.357.357,0,0,1-.714,0V508.993a.357.357,0,0,1,.426-.336.352.352,0,0,1,.181.1.287.287,0,0,1,.026.029l17.226,20.763a.357.357,0,0,1-.149.562l-3.409,1.29A.356.356,0,0,1,141.436,531.419Zm-10.666-18.053,10.813,17.258,2.668-1.009Z" transform="translate(-125.16 -506.747)" fill="#175bc2"/>
        <circle id="Ellipse_19" data-name="Ellipse 19" cx="2.328" cy="2.328" r="2.328" transform="translate(0.357)" fill="#dae9ff"/>
        <path id="Path_130" data-name="Path 130" d="M71.173,854.651h-.831a1.874,1.874,0,0,1-1.872-1.871v-.885a.357.357,0,1,1,.714,0v.885a1.159,1.159,0,0,0,1.157,1.157h.831a.925.925,0,0,0,.923-.923v-2.038a.978.978,0,0,0-.977-.977h-.193a.357.357,0,0,1-.357-.357v-1.814a.357.357,0,1,1,.714,0v1.464a1.693,1.693,0,0,1,1.527,1.684v2.038A1.64,1.64,0,0,1,71.173,854.651Z" transform="translate(-68.47 -833.467)" fill="#175bc2"/>
        <rect id="Rectangle_882" data-name="Rectangle 882" width="1.835" height="3.585" rx="0.918" transform="translate(1.572 12.291)" fill="#dae9ff"/>
        <path id="Path_131" data-name="Path 131" d="M218.92,1100.06h16.259v1.973H218.92Z" transform="translate(-213.547 -1077.035)" fill="#175bc2"/>
        <path id="Path_132" data-name="Path 132" d="M171.71,669.543h24.049v.986H171.71Zm33.2-12.672h1.153v17.11h-1.153Zm-6.853-2.252h3.4v19.362h-3.4Z" transform="translate(-168.023 -647.504)" fill="#175bc2"/>
        <circle id="Ellipse_20" data-name="Ellipse 20" cx="4.289" cy="4.289" r="4.289" transform="translate(21.562 16.559)" fill="#175bc2"/>
        <path id="Path_133" data-name="Path 133" d="M156.039,740.651v-11.7H142.944a2.042,2.042,0,0,0-1.039.286l-5.762,3.405H123.372a1.943,1.943,0,0,0-.926.235l-1.669.905a1.809,1.809,0,0,0-.946,1.59v5.284Zm28.407,0V730.481a1.906,1.906,0,0,0-1.5-1.862l-9.829-2.153-3.713-7.337a2.625,2.625,0,0,0-2.342-1.44h-8.31a1.4,1.4,0,0,0-1.4,1.4v21.559Z" transform="translate(-117.996 -708.322)" fill="#dae9ff"/>
        <path id="Path_134" data-name="Path 134" d="M119.78,1360.58H184.4v1.323H119.78Z" transform="translate(-117.947 -1328.25)" fill="#175bc2"/>
        <circle id="Ellipse_21" data-name="Ellipse 21" cx="5.89" cy="5.89" r="5.89" transform="translate(3.687 27.123)" fill="#175bc2"/>
        <g id="Group_55" data-name="Group 55" transform="translate(6.187 29.623)">
          <path id="Path_135" data-name="Path 135" d="M245.1,1291.57a3.39,3.39,0,1,1,3.39-3.39A3.39,3.39,0,0,1,245.1,1291.57Zm0-6.637a3.247,3.247,0,1,0,3.247,3.247A3.247,3.247,0,0,0,245.1,1284.933Z" transform="translate(-241.71 -1284.79)" fill="#fff"/>
          <path id="Path_136" data-name="Path 136" d="M281.723,1326.836a2.033,2.033,0,1,1,2.033-2.033A2.033,2.033,0,0,1,281.723,1326.836Z" transform="translate(-278.333 -1321.413)" fill="#fff"/>
          <path id="Path_137" data-name="Path 137" d="M247.28,1286.78h.654v1.611h-.654Zm0,4.983h.654v1.611h-.654Zm3.624-2.013v.654h-1.611v-.654Zm-4.983,0v.654H244.31v-.654Zm4.256,2.431-.463.463-1.139-1.139.463-.463Zm-3.525-3.524-.463.463-1.139-1.139.463-.463Zm3.058-1.149.463.463-1.139,1.139-.463-.463Zm-3.523,3.523.463.463-1.139,1.139-.463-.463Z" transform="translate(-244.217 -1286.709)" fill="#fff"/>
        </g>
        <circle id="Ellipse_22" data-name="Ellipse 22" cx="5.89" cy="5.89" r="5.89" transform="translate(19.061 27.123)" fill="#175bc2"/>
        <path id="Path_138" data-name="Path 138" d="M675.569,1291.57a3.39,3.39,0,1,1,3.391-3.39,3.39,3.39,0,0,1-3.391,3.39Zm0-6.637a3.247,3.247,0,1,0,3.248,3.247,3.247,3.247,0,0,0-3.248-3.247Z" transform="translate(-650.618 -1255.167)" fill="#fff"/>
        <path id="Path_139" data-name="Path 139" d="M712.193,1326.836a2.033,2.033,0,1,1,2.033-2.033A2.033,2.033,0,0,1,712.193,1326.836Z" transform="translate(-687.241 -1291.791)" fill="#fff"/>
        <path id="Path_140" data-name="Path 140" d="M677.73,1286.78h.654v1.611h-.654Zm0,4.983h.654v1.611h-.654Zm3.624-2.013v.654h-1.611v-.654Zm-4.983,0v.654H674.76v-.654Zm4.257,2.43-.463.463-1.139-1.139.463-.463Zm-3.524-3.524-.463.463-1.139-1.139.463-.463Zm3.055-1.149.463.463-1.139,1.139-.463-.463Zm-3.523,3.523.463.463-1.139,1.139-.463-.463Z" transform="translate(-653.106 -1257.086)" fill="#fff"/>
        <circle id="Ellipse_23" data-name="Ellipse 23" cx="5.89" cy="5.89" r="5.89" transform="translate(49.952 27.123)" fill="#175bc2"/>
        <path id="Path_141" data-name="Path 141" d="M1540.49,1291.57a3.39,3.39,0,1,1,3.39-3.39A3.39,3.39,0,0,1,1540.49,1291.57Zm0-6.637a3.247,3.247,0,1,0,3.247,3.247A3.247,3.247,0,0,0,1540.49,1284.933Z" transform="translate(-1484.646 -1255.167)" fill="#fff"/>
        <path id="Path_142" data-name="Path 142" d="M1577.113,1326.836a2.033,2.033,0,1,1,2.033-2.033,2.033,2.033,0,0,1-2.033,2.033Z" transform="translate(-1521.27 -1291.791)" fill="#fff"/>
        <path id="Path_143" data-name="Path 143" d="M1542.62,1286.78h.654v1.611h-.654Zm0,4.983h.654v1.611h-.654Zm3.625-2.013v.654h-1.611v-.654Zm-4.983,0v.654h-1.611v-.654Zm4.26,2.427-.463.463-1.139-1.139.463-.463Zm-3.524-3.523-.463.463-1.139-1.139.463-.463Zm3.048-1.15.463.463-1.139,1.139-.463-.463Zm-3.523,3.524.463.463-1.139,1.139-.463-.463Z" transform="translate(-1487.105 -1257.086)" fill="#fff"/>
        <path id="Path_144" data-name="Path 144" d="M1206.339,752.521l3.405,6.746a.384.384,0,0,1-.123.487l-1.459,1.023a.384.384,0,0,1-.221.071h-11.188a.384.384,0,0,1-.384-.384v-7.77a.384.384,0,0,1,.384-.384H1206A.384.384,0,0,1,1206.339,752.521Z" transform="translate(-1156.086 -741.705)" fill="#175bc2"/>
        <path id="Path_145" data-name="Path 145" d="M1814.9,1131.091h3.368V1133h-3.354a.747.747,0,0,1-.747-.747v-.429a.733.733,0,0,1,.733-.733Z" transform="translate(-1751.821 -1106.957)" fill="#ec6869"/>
        <circle id="Ellipse_24" data-name="Ellipse 24" cx="1.608" cy="1.608" r="1.608" transform="translate(62.208 27.464)" fill="#fff"/>
        <path id="Path_146" data-name="Path 146" d="M157.548,1187.022a.071.071,0,0,1-.071-.065,6.929,6.929,0,0,0-6.742-6.295h0a6.932,6.932,0,0,0-6.737,6.295.072.072,0,1,1-.143-.014,7.076,7.076,0,0,1,6.879-6.424h0a7.074,7.074,0,0,1,6.885,6.424.071.071,0,0,1-.064.078Zm15.374,0a.071.071,0,0,1-.071-.065,6.93,6.93,0,0,0-6.742-6.295h0a6.933,6.933,0,0,0-6.737,6.295.071.071,0,1,1-.142-.014,7.076,7.076,0,0,1,6.879-6.424h0a7.074,7.074,0,0,1,6.885,6.424.071.071,0,0,1-.064.078Zm17.264,0h-.007a.071.071,0,0,1-.064-.078,7.076,7.076,0,0,1,6.879-6.424H197a7.074,7.074,0,0,1,6.884,6.424.072.072,0,1,1-.143.014,6.93,6.93,0,0,0-6.742-6.295h-.005a6.933,6.933,0,0,0-6.737,6.295A.071.071,0,0,1,190.186,1187.022Z" transform="translate(-141.158 -1154.621)" fill="#175bc2"/>
        <path id="Path_147" data-name="Path 147" d="M1223.791,972.6a.071.071,0,0,1-.072-.071v-7.935a.071.071,0,0,1,.143,0v7.935A.071.071,0,0,1,1223.791,972.6Zm-9.762-5.055h-3.457a.071.071,0,0,1-.071-.071v-1.088a.071.071,0,0,1,.071-.071h3.457a.071.071,0,0,1,.071.071v1.088A.072.072,0,0,1,1214.029,967.544Zm-3.386-.143h3.314v-.945h-3.314Z" transform="translate(-1169.711 -946.336)" fill="#175bc2"/>
        <path id="Path_148" data-name="Path 148" d="M997.4,1136.18h4.289v.773H997.4Zm0,1.776h4.289v.773H997.4Zm0,1.776h4.289v.773H997.4Z" transform="translate(-964.222 -1111.865)" fill="#ec6869"/>
      </g>
    </g>
  </g>
</svg>
