<svg xmlns="http://www.w3.org/2000/svg" width="85.47" height="85.47" viewBox="0 0 85.47 85.47">
  <g id="Group_48" data-name="Group 48" transform="translate(-282.265 3793.678)">
    <path id="Path_334" data-name="Path 334" d="M17,0H68.47a17,17,0,0,1,17,17V68.47a17,17,0,0,1-17,17H17a17,17,0,0,1-17-17V17A17,17,0,0,1,17,0Z" transform="translate(282.265 -3793.678)" fill="#1c4f9e"/>
    <g id="Group_47" data-name="Group 47" transform="translate(292.395 -3783.695)">
      <path id="Path_315" data-name="Path 315" d="M44.775,0,95.42,8.84,85.755,45.453,36.786,35.787Z" transform="translate(-30.21)" fill="#dae9ff"/>
      <path id="Path_316" data-name="Path 316" d="M96.867,49.963l-.148-.029L51.072,40.957,56.8,9.055,105.456,16.8l-.044.17ZM51.442,40.7l45.191,8.887,8.426-32.529-48-7.643Z" transform="translate(-41.884 -7.4)" fill="#175bc2"/>
      <path id="Path_317" data-name="Path 317" d="M207.976,68.766l-.068-.056-9.014-7.377,1.461-13.5,12.734-1.541,7.953,6.33-1.865,12.41ZM199.231,61.2l8.812,7.212,10.847-3.616L220.7,52.757,213,46.626,200.646,48.12Z" transform="translate(-162.69 -37.832)" fill="#175bc2"/>
      <path id="Path_318" data-name="Path 318" d="M216.059,62.315,216,62.267l-8.867-7.189.2-.248,8.808,7.141,11.428-2.46.067.312Z" transform="translate(-169.422 -44.809)" fill="#175bc2"/>
      <path id="Path_319" data-name="Path 319" d="M0,0H13.489V.319H0Z" transform="translate(45.162 30.74) rotate(-84.221)" fill="#175bc2"/>
      <path id="Path_320" data-name="Path 320" d="M0,0H.16V.32H0Z" transform="translate(37.106 22.953) rotate(-5.253)" fill="#175bc2"/>
      <path id="Path_321" data-name="Path 321" d="M223.844,124.483l-.273-.159.16-.276.273.159Zm-.547-.318-.273-.159.16-.276.273.159Zm-.547-.318-.273-.159.16-.276.273.159Zm-.547-.318-.273-.159.16-.276.273.159Zm-.547-.318-.274-.159.16-.276.274.159Zm-.547-.318-.273-.159.16-.276.273.159Zm-.547-.318-.273-.159.16-.276.273.159Zm-.547-.318-.273-.159.16-.276.273.159Zm-.547-.318-.273-.159.16-.276.273.159Zm-.547-.318-.273-.159.16-.276.273.159Zm-12.485-.277-.029-.318.315-.029.029.318Zm11.938-.041-.273-.159.16-.276.273.159Zm-11.308-.018-.029-.318.315-.029.029.318Zm.63-.059-.029-.318.315-.029.029.318Zm.63-.058-.029-.318.315-.029.029.318Zm.63-.059-.029-.318.315-.029.029.318Zm.63-.058-.029-.318.315-.029.029.318Zm.63-.059-.029-.318.315-.029.029.318Zm7.613-.007-.273-.159.16-.276.273.159Zm-6.983-.051-.029-.318.315-.029.029.318Zm.63-.059-.029-.318.315-.029.029.318Zm.63-.059-.029-.318.315-.029.029.318Zm.63-.058-.029-.318.315-.029.029.318Zm.63-.059-.029-.318.315-.029.029.318Zm3.917-.032-.273-.159.16-.276.273.159ZM214,120.641l-.029-.318.315-.029.029.318Zm.63-.059-.029-.318.315-.029.029.318Zm.63-.059-.029-.318.315-.029.029.318Zm.63-.059-.029-.318.315-.029.029.318Zm.63-.059-.029-.318.315-.029.029.318Z" transform="translate(-168.831 -98.116)" fill="#175bc2"/>
      <path id="Path_322" data-name="Path 322" d="M0,0H.319V.16H0Z" transform="translate(55.286 26.522) rotate(-59.834)" fill="#175bc2"/>
      <path id="Path_323" data-name="Path 323" d="M262.864,64.422l-.314-.061.061-.314.314.061Zm.122-.627-.314-.061.061-.314.314.061Zm.122-.628-.314-.061.061-.314.314.061Zm.121-.627-.314-.061.061-.314.314.061Zm.122-.628-.314-.061.061-.314.314.061Zm.122-.627-.314-.061.061-.314.314.061Zm.122-.628-.314-.061.061-.314.314.061Zm.121-.627-.314-.061.061-.314.314.061Zm.122-.627-.314-.061.061-.314.314.061Zm.122-.627-.314-.061.061-.314.314.061Zm.122-.627-.314-.061.061-.314.314.061Zm.121-.627-.314-.061.061-.314.314.061Zm.122-.627-.314-.061.061-.314.314.061Zm.122-.627-.314-.061.061-.314.314.061Zm.122-.628-.314-.061.061-.314.314.061Zm.121-.627-.314-.061.061-.314.314.061Zm.122-.627-.314-.061.061-.314.314.061Zm.122-.627-.314-.061.061-.314.314.061Zm.122-.628-.314-.061.061-.314.314.061Z" transform="translate(-214.711 -43.113)" fill="#175bc2"/>
      <path id="Path_324" data-name="Path 324" d="M0,0H1.278V11.624H0Z" transform="translate(34.477 31.382) rotate(-78.638)" fill="#175bc2"/>
      <path id="Path_325" data-name="Path 325" d="M89.841,77.521q.4.086.623.123l.222.037c.064.011.145.022.242.034.081.009.184.023.309.042s.274.039.448.06a1.267,1.267,0,0,0-.22.13,1.429,1.429,0,0,0-.138.12.515.515,0,0,0-.088.121,1.519,1.519,0,0,0-.1.419,5.623,5.623,0,0,0-.046.586q-.01.323,0,.646t.027.6c.012.18.027.327.043.443s.032.176.047.178.057-.05.123-.159q.122-.2.234-.416.146-.274.285-.553.15-.3.278-.572c.086-.182.16-.339.218-.471a1.6,1.6,0,0,0,.1-.247.412.412,0,0,0-.019-.146.706.706,0,0,0-.08-.171,2.1,2.1,0,0,0-.174-.237l.324.042c.091.011.168.022.233.033l.187.031.963.162a2.349,2.349,0,0,0-.289.156,1.544,1.544,0,0,0-.2.152,1.981,1.981,0,0,0-.163.159,5.732,5.732,0,0,0-.291.514c-.06.114-.131.252-.212.416l-.291.589q-.194.395-.381.793-.211.45-.481,1.024l-.855-.032q-.072-.495-.118-.9t-.084-.7q-.038-.3-.065-.611-.038-.329-.046-.661-.009-.3-.011-.6,0-.225-.008-.45a.391.391,0,0,0-.044-.218,1.235,1.235,0,0,0-.095-.1q-.059-.053-.153-.14l-.243-.229Zm6.235,3.157q-.535-.09-.858-.141l-.5-.08-.295-.05q-.125-.012-.249-.029l-.4-.049q-.327-.04-.654-.085l.08-.55q.455.089.751.151l.469.1q.2.046.311.065a2.73,2.73,0,0,0,.3.043q.163.021.443.05c.186.019.421.037.7.056q-.044.154-.057.226l-.014.084-.012.072c0,.02-.006.042-.008.067S96.08,80.654,96.076,80.678Zm-3.048.163.857.131q.326.049.5.072c.138.019.236.033.3.043s.135.019.249.029l.4.048q.252.03.659.073l-.073.545-.754-.136q-.236-.041-.471-.088-.156-.031-.312-.058a2.694,2.694,0,0,0-.3-.045l-.442-.04q-.35-.03-.7-.046a.878.878,0,0,0,.034-.133c.007-.038.012-.071.017-.1L93,81.053A.411.411,0,0,1,93,80.986l.024-.144Z" transform="translate(-73.568 -63.353)" fill="#175bc2"/>
      <path id="Path_326" data-name="Path 326" d="M86.972,85.914c.2.046.367.083.5.112l.343.073q.156.032.265.044t.3.019c.106.006.249.01.428.013s.4,0,.67,0a1.88,1.88,0,0,0-.256.214q-.093.1-.149.17a.9.9,0,0,0-.093.151,1.222,1.222,0,0,0-.027.3q0,.293.007.586.011.339.027.723c.011.256.024.495.041.718s.033.414.05.572a1.261,1.261,0,0,0,.048.284c.046.095.075.156.086.185a.2.2,0,0,0,.073.083c.015.011.038.027.072.049s.069.049.119.082.115.073.194.119q-.2-.023-.406-.053-.139-.021-.279-.038l-.219-.024q-.109-.017-.219-.024t-.284-.023q-.173-.017-.4-.043a1.937,1.937,0,0,0,.222-.121q.086-.056.137-.1a.415.415,0,0,0,.085-.1,1.124,1.124,0,0,0,.045-.16c.015-.064.029-.149.043-.256s.027-.248.04-.424l-1.61-.1a1.4,1.4,0,0,0-.12.162.938.938,0,0,0-.064.122.281.281,0,0,0-.03.106.691.691,0,0,0,.023.121,1.178,1.178,0,0,0,.063.156,1.438,1.438,0,0,0,.14.218q-.152-.032-.306-.058t-.29-.043l-.309-.04c-.1-.013-.216-.026-.346-.039L85.2,89.63q-.239-.023-.479-.04a1.822,1.822,0,0,0,.289-.1,1.687,1.687,0,0,0,.2-.111,1.589,1.589,0,0,0,.167-.114q.053-.053.216-.252.191-.233.374-.473.224-.293.445-.587t.431-.593q.169-.239.323-.487a1.083,1.083,0,0,0,.139-.274.6.6,0,0,0-.031-.185,1.1,1.1,0,0,0-.1-.214,1.7,1.7,0,0,0-.209-.283ZM88.439,88.6q0-.188,0-.375c0-.106,0-.193-.005-.264s0-.145,0-.217-.005-.149-.006-.224-.007-.177-.009-.3-.007-.26-.012-.426q-.459.628-.711.973-.185.251-.366.5c-.091.125-.143.2-.154.222l1.27.1Zm1.994-.578.139.025.087.016.058.01.066.011.109.017.179.023a.457.457,0,0,0-.085.011.142.142,0,0,0-.048.02.05.05,0,0,0-.026.028.382.382,0,0,0,.008.076,1.109,1.109,0,0,0,.031.127c.015.054.041.128.074.221q.113-.092.222-.189c.051-.047.09-.083.116-.108a.393.393,0,0,0,.049-.06.261.261,0,0,0,0-.031.392.392,0,0,0-.031-.079c.051.012.1.023.134.03l.1.021.075.016.093.012.136.015q.086.01.218.02a1.809,1.809,0,0,0-.338.133.95.95,0,0,0-.11.065l-.11.091-.144.123q-.085.073-.208.183a2.534,2.534,0,0,0,.105.247q.053.1.091.173a.92.92,0,0,0,.088.134q.041.052.092.1c.029.031.062.064.1.1a.934.934,0,0,0,.128.1c-.051,0-.1-.01-.147-.017s-.085-.011-.127-.014l-.123-.012-.12-.011-.117-.014q-.066-.008-.131-.019a.289.289,0,0,0,.048-.042.417.417,0,0,0,.03-.036.111.111,0,0,0,.021-.035.285.285,0,0,0-.017-.08c-.01-.034-.027-.08-.051-.141q-.05-.126-.107-.249a1.5,1.5,0,0,0-.126.1.935.935,0,0,0-.074.077.376.376,0,0,0-.043.061.14.14,0,0,0-.01.058c0,.018,0,.04.007.065a.251.251,0,0,0,.028.08q-.122-.013-.244-.032l-.1-.016-.109-.021-.137-.027c-.055-.01-.119-.023-.191-.039a.667.667,0,0,0,.071-.018l.066-.022a.631.631,0,0,0,.067-.027,1.221,1.221,0,0,0,.118-.081c.045-.034.108-.082.188-.145s.185-.148.314-.255c-.044-.127-.081-.227-.109-.3q-.033-.087-.064-.176a.94.94,0,0,0-.04-.1.689.689,0,0,0-.037-.06.871.871,0,0,0-.133-.135Zm2.526-1.609c.09.032.172.057.248.076l.19.047c.06.014.111.025.156.032q.091.009.213.017l.255.012c.1,0,.216.008.348.009a1.217,1.217,0,0,0-.166.068.487.487,0,0,0-.112.077.6.6,0,0,0-.083.091,1.848,1.848,0,0,0-.121.314q-.072.2-.193.611-.162.551-.318,1.1a2,2,0,0,1,.467-.259,1.887,1.887,0,0,1,.373-.1,1.129,1.129,0,0,1,.335,0,1.087,1.087,0,0,1,.362.181,2.352,2.352,0,0,1,.329.293,2.034,2.034,0,0,1,.253.333,1.269,1.269,0,0,1,.139.3.5.5,0,0,1,0,.208,1.7,1.7,0,0,1-.069.264,3.062,3.062,0,0,1-.116.284q-.067.144-.129.269l-.108.22a1.14,1.14,0,0,0-.06.135.42.42,0,0,0-.017.176.5.5,0,0,0,.046.166.409.409,0,0,0,.14.163q-.087-.027-.174-.051l-.175-.045q-.1-.022-.192-.038l-.217-.036-.235-.037-.291-.039A.463.463,0,0,0,94.2,91.2a.933.933,0,0,0,.119-.082.769.769,0,0,0,.1-.1,1.194,1.194,0,0,0,.091-.173c.039-.086.079-.187.119-.3s.077-.238.109-.369a3.086,3.086,0,0,0,.07-.381,1.332,1.332,0,0,0,0-.337.4.4,0,0,0-.1-.233.836.836,0,0,0-.456-.284.652.652,0,0,0-.448.107q-.164.106-.317.229c-.057.046-.11.094-.16.144-.01.06-.019.127-.027.2s-.016.144-.023.213-.015.154-.02.232c-.012.118-.018.234-.021.349s-.006.216,0,.324a2.081,2.081,0,0,0,.026.323.86.86,0,0,0-.161-.036L92.933,91q-.088-.009-.176-.023t-.166-.009q-.074,0-.159-.005a1.385,1.385,0,0,0-.168,0,2.155,2.155,0,0,0,.167-.254q.062-.111.118-.225c.037-.076.071-.151.1-.225a2.6,2.6,0,0,0,.085-.341q.2-1,.352-2.005.05-.338.078-.593a3.33,3.33,0,0,0,.026-.355,1.248,1.248,0,0,0-.034-.2.849.849,0,0,0-.069-.182.522.522,0,0,0-.128-.161Zm-7.671,9.129q-.429-.072-.858-.141l-.5-.08-.295-.05q-.125-.012-.249-.029l-.4-.049q-.327-.04-.654-.085l.08-.55q.455.089.751.151l.469.1q.2.046.311.065a2.7,2.7,0,0,0,.3.043q.163.021.443.05c.186.019.421.037.7.056q-.044.154-.056.226l-.014.084-.012.072c0,.02-.006.042-.007.067S85.292,95.522,85.288,95.546Zm-3.048.163.857.131q.326.049.5.072.148.02.3.043.078.013.249.029l.4.048q.252.03.659.073l-.073.545-.754-.136q-.236-.041-.471-.088-.156-.031-.312-.058a2.669,2.669,0,0,0-.3-.044l-.442-.04q-.35-.03-.7-.046a.874.874,0,0,0,.034-.133l.017-.1.014-.084a.413.413,0,0,1,.005-.067Zm-2.993-3.093c.2.046.367.083.5.112l.343.073q.156.032.265.044t.3.019c.106.006.249.01.428.013s.4,0,.67,0a1.879,1.879,0,0,0-.256.214q-.093.1-.149.17a.9.9,0,0,0-.093.151,1.222,1.222,0,0,0-.027.3q0,.293.007.586.011.339.027.723c.011.256.024.495.041.718s.033.414.05.572a1.261,1.261,0,0,0,.048.284c.046.095.075.156.086.185a.2.2,0,0,0,.073.083c.015.011.038.027.072.049s.069.049.119.082.115.073.194.119q-.2-.023-.406-.053-.139-.021-.279-.038l-.219-.024q-.109-.017-.219-.024t-.284-.023q-.173-.017-.4-.043a1.936,1.936,0,0,0,.222-.121q.086-.056.137-.1a.415.415,0,0,0,.085-.1,1.123,1.123,0,0,0,.045-.16c.015-.064.029-.149.043-.256s.027-.248.04-.424l-1.61-.1a1.405,1.405,0,0,0-.12.162.937.937,0,0,0-.064.122.281.281,0,0,0-.03.106.69.69,0,0,0,.023.121,1.176,1.176,0,0,0,.063.156,1.439,1.439,0,0,0,.14.218q-.152-.032-.306-.058t-.29-.043l-.309-.04q-.173-.022-.346-.039l-.387-.037q-.239-.023-.479-.04a1.823,1.823,0,0,0,.289-.1,1.688,1.688,0,0,0,.2-.111,1.571,1.571,0,0,0,.167-.114q.053-.053.216-.252.191-.233.374-.473.224-.293.445-.587t.431-.593q.169-.239.323-.487a1.083,1.083,0,0,0,.139-.274.6.6,0,0,0-.031-.185,1.105,1.105,0,0,0-.1-.214,1.711,1.711,0,0,0-.209-.282Zm1.467,2.691q0-.188,0-.375c0-.106,0-.193-.005-.264s0-.145,0-.217-.005-.149-.006-.224-.007-.177-.009-.3-.007-.26-.012-.426q-.459.628-.711.973-.185.251-.366.5c-.091.125-.143.2-.154.222l1.27.1Z" transform="translate(-63.071 -70.212)" fill="#175bc2"/>
      <path id="Path_327" data-name="Path 327" d="M0,0H1.278V6.076H0Z" transform="translate(34.213 33.975) rotate(-79.013)" fill="#175bc2"/>
      <path id="Path_328" data-name="Path 328" d="M0,0H1.278V14.626H0Z" transform="translate(33.564 36.416) rotate(-77.86)" fill="#175bc2"/>
      <path id="Path_329" data-name="Path 329" d="M88.76,80.325c-4.317,0-9.5-1.118-12.382-2.979-1.462-.944-2.2-1.981-2.2-3.083a3.01,3.01,0,0,1,1.079-2.436c2.132-1.769,6.644-.945,6.835-.909l-.059.314c-.045-.008-4.556-.832-6.573.841a2.7,2.7,0,0,0-.963,2.19c0,.986.692,1.933,2.057,2.815,4.246,2.743,13.563,3.85,17.489,2.08,1.292-.583,1.806-1.438,1.487-2.475-.833-2.708-7.156-5.916-14.786-4.582l-.055-.315c7.8-1.363,14.281,1.988,15.146,4.8.368,1.2-.222,2.211-1.661,2.86A13.869,13.869,0,0,1,88.76,80.325Zm-8.119,9.2q-.535-.09-.858-.141l-.5-.08-.295-.05q-.125-.012-.249-.029l-.4-.049q-.327-.04-.654-.085l.08-.55q.455.089.751.151l.469.1q.2.046.311.065a2.728,2.728,0,0,0,.3.043q.163.021.443.05c.186.019.421.037.7.056q-.044.154-.057.226l-.014.084-.012.072c0,.02-.006.042-.008.067s-.005.049-.009.073Zm-3.048.163.857.131q.326.049.5.072.148.02.3.043.078.013.249.029l.4.048q.252.03.659.073l-.073.545-.754-.136q-.236-.041-.471-.088-.156-.031-.312-.058a2.7,2.7,0,0,0-.3-.045l-.442-.04q-.35-.03-.7-.047a.878.878,0,0,0,.034-.133c.007-.038.012-.071.017-.1l.014-.084a.387.387,0,0,1,.005-.067l.024-.144Zm-3.16-3.959c.09.032.172.057.248.076l.19.047c.06.014.111.025.156.032q.091.009.213.017l.255.012c.1,0,.216.008.348.009a1.217,1.217,0,0,0-.166.068.487.487,0,0,0-.112.077.6.6,0,0,0-.083.091,1.848,1.848,0,0,0-.121.314q-.072.2-.193.611-.162.551-.318,1.1a2,2,0,0,1,.467-.259,1.885,1.885,0,0,1,.373-.1,1.124,1.124,0,0,1,.335,0,1.087,1.087,0,0,1,.362.181,2.344,2.344,0,0,1,.329.293,2.043,2.043,0,0,1,.253.333,1.274,1.274,0,0,1,.139.3.5.5,0,0,1,0,.208,1.7,1.7,0,0,1-.069.264q-.051.145-.116.284t-.129.269l-.108.22a1.142,1.142,0,0,0-.06.135.42.42,0,0,0-.017.176.5.5,0,0,0,.046.166.41.41,0,0,0,.14.163q-.087-.027-.174-.051l-.175-.045q-.1-.022-.192-.038l-.217-.036-.235-.037-.291-.039a.462.462,0,0,0,.158-.057.947.947,0,0,0,.119-.082.769.769,0,0,0,.1-.1,1.174,1.174,0,0,0,.091-.173c.039-.086.079-.187.119-.3s.078-.244.109-.369a3.086,3.086,0,0,0,.07-.381,1.333,1.333,0,0,0,0-.337.4.4,0,0,0-.1-.233.836.836,0,0,0-.456-.284.652.652,0,0,0-.448.107q-.164.106-.317.229c-.057.046-.11.094-.16.144-.01.06-.019.127-.027.2s-.016.144-.023.213-.015.154-.02.232c-.012.118-.018.234-.021.349s-.006.216,0,.324a2.083,2.083,0,0,0,.026.323.861.861,0,0,0-.161-.036l-.163-.024q-.088-.009-.176-.023t-.166-.009q-.074,0-.159-.005a1.357,1.357,0,0,0-.168,0,2.157,2.157,0,0,0,.167-.254q.062-.111.118-.225c.037-.076.071-.151.1-.225a2.6,2.6,0,0,0,.085-.341q.2-1,.352-2.005.05-.338.078-.593a3.332,3.332,0,0,0,.026-.355,1.249,1.249,0,0,0-.034-.2.85.85,0,0,0-.069-.182.526.526,0,0,0-.128-.161Z" transform="translate(-60.409 -57.775)" fill="#175bc2"/>
      <path id="Path_330" data-name="Path 330" d="M0,0H1.278V7.275H0Z" transform="matrix(0.153, -0.988, 0.988, 0.153, 23.456, 26.434)" fill="#175bc2"/>
      <path id="Path_331" data-name="Path 331" d="M0,0H1.278V4.675H0Z" transform="translate(21.551 32.941) rotate(-80.991)" fill="#175bc2"/>
      <path id="Path_332" data-name="Path 332" d="M59.5,214.425l.3-20.761a1.123,1.123,0,0,0,.867-.009c.912-.444.9-2.355-.034-4.27s-2.426-3.106-3.339-2.662-.9,2.355.034,4.27a6.8,6.8,0,0,0,1.474,2.041l-.3,3.985L4.9,186.63l.031,3.912,6.96,1.31-1.426,18.735L.8,211.626v2.157l17.654-2.8v-1.917l-6.471,1.278.88-18.312,45.366,8.541-1.085,14.253-9.666,1.038v2.157l17.654-2.8v-1.917L59.5,214.425Z" transform="translate(-0.801 -152.521)" fill="#ec6869"/>
      <path id="Path_333" data-name="Path 333" d="M315.5,197.478c.347,1.023.29,1.968-.126,2.109s-1.036-.574-1.383-1.6-.29-1.968.126-2.109S315.154,196.454,315.5,197.478Z" transform="translate(-256.566 -160.065)" fill="#dae9ff"/>
    </g>
  </g>
</svg>
