<svg xmlns="http://www.w3.org/2000/svg" width="85.47" height="85.47" viewBox="0 0 85.47 85.47">
  <g id="خدمات_التسجيل_والتعقيب_" data-name="خدمات التسجيل والتعقيب " transform="translate(-3660.265 -1916.53)">
    <path id="Path_521" data-name="Path 521" d="M16,0H69.47a16,16,0,0,1,16,16V69.47a16,16,0,0,1-16,16H16a16,16,0,0,1-16-16V16A16,16,0,0,1,16,0Z" transform="translate(3660.265 1916.53)" fill="#1c4f9e"/>
    <g id="Group_173" data-name="Group 173" transform="translate(-3.741 -3.741)">
      <path id="Path_681" data-name="Path 681" d="M38.5,37.856V51.33a1.839,1.839,0,0,1-1.833,1.833H1.833A1.839,1.839,0,0,1,0,51.33V6.416L6.416,0H36.664A1.839,1.839,0,0,1,38.5,1.833Z" transform="translate(3680.16 1936.425)" fill="#dae9ff"/>
      <path id="Path_682" data-name="Path 682" d="M0,6.416H4.583A1.833,1.833,0,0,0,6.416,4.583V0Z" transform="translate(3680.16 1936.425)" fill="#a6bee2"/>
      <path id="Path_683" data-name="Path 683" d="M17.871,23.5,9.029,30.635a1.852,1.852,0,0,1-2.621-.291A1.89,1.89,0,0,1,6.7,27.7l8.822-7.116Z" transform="translate(3679.66 1934.708)" fill="#175bc2"/>
      <path id="Path_684" data-name="Path 684" d="M17.788,15.553,16.1,16.916a1.884,1.884,0,0,0-.275,2.65l3.161,3.919a1.858,1.858,0,0,0,2.667.235l1.538-1.335Z" transform="translate(3678.875 1935.128)" fill="#1757b7"/>
      <path id="Path_685" data-name="Path 685" d="M31.961,17.593l-7.292,5.859L16.358,12.946,23.65,7.087Z" transform="translate(3678.796 1935.834)" fill="#175bc2"/>
      <path id="Path_686" data-name="Path 686" d="M21.451,4.2l-7.424,5.958a.917.917,0,0,0-.144,1.283l.907,1.146a.9.9,0,0,0,1.277.145l7.42-5.958a.917.917,0,0,0,.144-1.283l-.907-1.146A.9.9,0,0,0,21.451,4.2Zm10.3,13.121-7.424,5.958a.917.917,0,0,0-.144,1.283l.907,1.147a.9.9,0,0,0,1.278.145L33.791,19.9a.917.917,0,0,0,.145-1.288l-.907-1.146a.906.906,0,0,0-1.273-.141Z" transform="translate(3679.019 1936.091)" fill="#1757b7"/>
      <g id="Group_172" data-name="Group 172" transform="translate(3684.704 1969.423)">
        <path id="Path_687" data-name="Path 687" d="M26.995,37.833H5.913a.917.917,0,1,1,0-1.833H26.995a.917.917,0,1,1,0,1.833Zm-4.583,4.583H5.913a.917.917,0,0,1,0-1.833h16.5a.917.917,0,0,1,0,1.833ZM19.662,47H5.913a.917.917,0,1,1,0-1.833H19.662a.917.917,0,0,1,0,1.833Zm4.622,4.583H5.874a.917.917,0,1,1,0-1.833H24.284a.917.917,0,0,1,0,1.833Z" transform="translate(-4.957 -36)" fill="#a6bee2"/>
      </g>
      <path id="Path_688" data-name="Path 688" d="M33.084,50.014a1.938,1.938,0,0,1-.339.165L29.17,51.517l-2,.742A1.145,1.145,0,0,1,25.714,50.8l.8-2.136,1.283-3.437a1.933,1.933,0,0,1,.165-.339l2.566,2.566Z" transform="translate(3678.021 1932.681)" fill="#fdd7ad"/>
      <path id="Path_689" data-name="Path 689" d="M47.584,29.064,30.736,45.919,28.17,43.353a1.708,1.708,0,0,1,.257-.312L44.99,26.469Z" transform="translate(3677.811 1934.218)" fill="#175bc2"/>
      <path id="Path_690" data-name="Path 690" d="M50.411,31.884,33.839,48.457a1.707,1.707,0,0,1-.312.257L30.97,46.156,47.817,29.3Z" transform="translate(3677.577 1933.981)" fill="#1757b7"/>
      <path id="Path_691" data-name="Path 691" d="M54.3,28.827l-2.594,2.585-2.594-2.585L46.52,26.233l2.594-2.594Z" transform="translate(3676.28 1934.454)" fill="#d95b5c"/>
      <path id="Path_692" data-name="Path 692" d="M56.454,26.654l-1.916,1.925L49.35,23.391l1.916-1.916a2.777,2.777,0,0,1,3.923-.028l1.292,1.292a2.766,2.766,0,0,1-.028,3.914Z" transform="translate(3676.044 1934.703)" fill="#ec6869"/>
      <path id="Path_693" data-name="Path 693" d="M29.179,51.751a.446.446,0,0,1-.009.11l-2,.742a1.145,1.145,0,0,1-1.457-1.457l.8-2.136A2.733,2.733,0,0,1,29.179,51.751Z" transform="translate(3678.021 1932.338)" fill="#ec6869"/>
    </g>
  </g>
</svg>
