<svg xmlns="http://www.w3.org/2000/svg" width="85.47" height="85.47" viewBox="0 0 85.47 85.47">
  <g id="Group_51" data-name="Group 51" transform="translate(-304 3736.735)">
    <path id="Path_335" data-name="Path 335" d="M17,0H68.47a17,17,0,0,1,17,17V68.47a17,17,0,0,1-17,17H17a17,17,0,0,1-17-17V17A17,17,0,0,1,17,0Z" transform="translate(304 -3736.735)" fill="#1c4f9e"/>
    <g id="Group_50" data-name="Group 50" transform="translate(314.397 -3759.482)">
      <path id="Path_336" data-name="Path 336" d="M296.855,129.717a8.769,8.769,0,0,1-3.515.5,19.691,19.691,0,0,1,.933-7.8,7.7,7.7,0,0,1,3.2,1.78Z" transform="translate(-240.35 -67.19)" fill="#dae9ff"/>
      <path id="Path_337" data-name="Path 337" d="M293.459,127.474a11.453,11.453,0,0,0,1.613-4.833q-.321-.122-.648-.226A19.817,19.817,0,0,0,293.459,127.474Z" transform="translate(-240.501 -67.19)" fill="#175bc2"/>
      <path id="Path_349" data-name="Path 349" d="M4.868,0C7.557,0,9.736,3.078,9.736,6.874s-2.18,6.874-4.868,6.874S0,10.671,0,6.874,2.18,0,4.868,0Z" transform="translate(50.929 75.772)" fill="#175bc2"/>
      <path id="Path_348" data-name="Path 348" d="M8.048,0C12.493,0,16.1,2.806,16.1,6.267s-3.6,6.267-8.048,6.267S0,9.728,0,6.267,3.6,0,8.048,0Z" transform="translate(32.467 90.031) rotate(-87.7)" fill="#175bc2"/>
      <path id="Path_350" data-name="Path 350" d="M2.857,0C4.435,0,5.714,1.882,5.714,4.2s-1.279,4.2-2.857,4.2S0,6.526,0,4.2,1.279,0,2.857,0Z" transform="translate(34.049 79.181)" fill="#fff"/>
      <path id="Path_351" data-name="Path 351" d="M6.654,0c3.675,0,6.654,2.315,6.654,5.171s-2.979,5.171-6.654,5.171S0,8.028,0,5.171,2.979,0,6.654,0Z" transform="translate(7.563 88.142) rotate(-86.33)" fill="#175bc2"/>
      <path id="Path_352" data-name="Path 352" d="M3.476,0C5.4,0,6.952,1.056,6.952,2.358S5.4,4.715,3.476,4.715,0,3.66,0,2.358,1.556,0,3.476,0Z" transform="translate(9.409 85.844) rotate(-89.25)" fill="#fff"/>
      <path id="Path_353" data-name="Path 353" d="M5.765,0c3.184,0,5.765,2.006,5.765,4.481S8.95,8.962,5.765,8.962,0,6.955,0,4.481,2.581,0,5.765,0Z" transform="translate(19.959 87.005) rotate(-86.33)" fill="#175bc2"/>
      <path id="Path_338" data-name="Path 338" d="M14.48,97.007l-2.7.213c-2.441-8.375-3.519-23.345-1.725-31.477,7.585-3.6,41.795-14.428,52.663-3.192A54.47,54.47,0,0,1,59.3,78c4.043-.153,6.642,1.091,7.275,4.6,5.611,0,4.052,9.045,3.217,11.871-.773.034-1.171.188-1.944.222l-1.008,3.226A36.077,36.077,0,0,1,48.2,97.815c.814-7.334-2.035-9.179-3.183-9.514a4.322,4.322,0,0,0-3.557.536c-2.7,1.819-2.324,6-1.976,8.7,0,0-14.366-.322-16.7-.357-.552-6.2-3.918-8.2-5.45-8.041-4.3.433-2.854,7.874-2.854,7.874Z" transform="translate(-7.506 -14.057)" fill="#dae9ff"/>
      <path id="Path_339" data-name="Path 339" d="M197.7,99.452l.08-14.92a17.062,17.062,0,0,0-9.2,1.212,45.979,45.979,0,0,0,2.528,15.608A23.2,23.2,0,0,1,197.7,99.452Zm7.149.42a15.37,15.37,0,0,0-4.694-.512l.887-14.649a11.7,11.7,0,0,1,6.994,1.627,58.772,58.772,0,0,1-3.187,13.534Z" transform="translate(-154.531 -35.994)" fill="#175bc2"/>
      <path id="Path_346" data-name="Path 346" d="M3.9,0c2.156,0,3.9,1.236,3.9,2.761S6.059,5.522,3.9,5.522,0,4.286,0,2.761,1.747,0,3.9,0Z" transform="matrix(0.102, -0.995, 0.995, 0.102, 44.366, 77.114)" fill="#fff"/>
      <g id="Group_49" data-name="Group 49" transform="translate(3.514 49.775)">
        <path id="Path_340" data-name="Path 340" d="M64,113.815c.936.049,1.6,1.317,1.483,2.832a4.191,4.191,0,0,1-.313,1.313,3.857,3.857,0,0,0,.618-1.872c.117-1.515-.547-2.783-1.483-2.832-.64-.033-1.241.511-1.595,1.342A1.543,1.543,0,0,1,64,113.815Zm-26.442-8.288q3.718-.253,7.469-.247a63.951,63.951,0,0,1,1.191-13.07A69.655,69.655,0,0,0,37,93.421c-.221,2.531.065,10.33.558,12.106ZM20.15,107.364c1.795-.147,3.546-.421,5.513-.555a32.48,32.48,0,0,1-.405-10.839,17.225,17.225,0,0,0-5.731,1.37,47.3,47.3,0,0,0,.623,10.025Zm8.113-.815,6.3-.822A50.857,50.857,0,0,1,34.5,94.038a24.076,24.076,0,0,0-7.127,1.226A48.131,48.131,0,0,0,28.263,106.549Zm26.8,23.134a6.462,6.462,0,0,1-.051-7.329,12.586,12.586,0,0,0,2.449,5.627Z" transform="translate(-19.47 -92.21)" fill="#175bc2"/>
      </g>
      <path id="Path_341" data-name="Path 341" d="M68.03,257.967a9.5,9.5,0,0,0,.9-5.683c-7.843,1.339-16.167,1.564-23.687-.544a5.8,5.8,0,0,0,.38,7.211C51.554,260.147,63.39,259.981,68.03,257.967ZM9.873,252.248a2.936,2.936,0,0,0-3.06,2.7A2.833,2.833,0,0,0,9.921,257.5a3.617,3.617,0,0,0,.6-.065Z" transform="translate(-5.583 -173.176)" fill="#fff"/>
      <path id="Path_342" data-name="Path 342" d="M159.621,150.317l5.191,1.444L163.989,146Z" transform="translate(-130.816 -86.521)" fill="#175bc2"/>
      <path id="Path_343" data-name="Path 343" d="M159.836,126.913c.034-2.557.452-5.841.243-8.692a15.124,15.124,0,0,0-5.37.062,48.461,48.461,0,0,0,.883,9.093Z" transform="translate(-126.786 -63.58)" fill="#dae9ff"/>
      <path id="Path_347" data-name="Path 347" d="M3.494,0c1.93,0,3.494.895,3.494,2S5.424,4,3.494,4,0,3.1,0,2,1.564,0,3.494,0Z" transform="translate(56.911 77.122) rotate(-86.5)" fill="#fff"/>
      <path id="Path_344" data-name="Path 344" d="M327.524,212.3c.718.046,1.221,1.344,1.124,2.9a5.707,5.707,0,0,1-.188,1.152,3.389,3.389,0,0,0,.572-1.769c.081-1.3-.435-2.4-1.152-2.444a.845.845,0,0,0-.557.183.629.629,0,0,1,.2-.02Z" transform="translate(-268.255 -140.719)" fill="#175bc2"/>
      <g id="School_bus" data-name="School bus" transform="translate(0 40.431)">
        <path id="Path_345" data-name="Path 345" d="M1.783,87.587a71.144,71.144,0,0,0,14.5,1.377c6.5-.273,3.838-2.467,3.838-2.467s.652,1.015-1.34,1.42c-2.326.472-7.7.709-17-.329ZM30.96,89.3a39.758,39.758,0,0,0,9.278.575c3.956-.41,2.575-1.749,2.575-1.749s3.366,2.038-1.465,2.344A38.778,38.778,0,0,1,30.96,89.3Zm22.5-.106s6.96.51,11.221-.532ZM0,76.423a110.5,110.5,0,0,1,14.1-3.038,92.446,92.446,0,0,1,12.774-.959S14.405,69.811,0,76.423ZM33.589,44.81A53.184,53.184,0,0,0,0,53.778C8.632,46.4,21.867,43.212,33.589,44.81Zm20.436.862A86.891,86.891,0,0,0,22.572,40.8,61.347,61.347,0,0,1,54.024,45.672ZM49.251,66.989a22.692,22.692,0,0,1-12.122,3.276A22.487,22.487,0,0,1,25.09,66.837,32.357,32.357,0,0,0,49.251,66.989Zm1.18-2.915a7.087,7.087,0,0,1-7.675,1.362A10.989,10.989,0,0,0,50.431,64.074Zm7.222-5.881a4.71,4.71,0,0,1-2.492,7.935,5.88,5.88,0,0,0,2.729-3.352,6.606,6.606,0,0,0-.237-4.583Z" transform="translate(0 -40.431)" fill="#ec6869"/>
      </g>
    </g>
  </g>
</svg>
