<svg xmlns="http://www.w3.org/2000/svg" xmlns:xlink="http://www.w3.org/1999/xlink" width="85.47" height="85.47" viewBox="0 0 85.47 85.47">
  <defs>
    <clipPath id="clip-path">
      <path id="Path_375" data-name="Path 375" d="M355.49,171.42h5.126v11.207H355.49Z" transform="translate(-355.49 -171.42)" fill="#175bc2"/>
    </clipPath>
  </defs>
  <g id="Group_56" data-name="Group 56" transform="translate(-282.265 3689.735)">
    <path id="Path_368" data-name="Path 368" d="M17,0H68.47a17,17,0,0,1,17,17V68.47a17,17,0,0,1-17,17H17a17,17,0,0,1-17-17V17A17,17,0,0,1,17,0Z" transform="translate(282.265 -3689.735)" fill="#1c4f9e"/>
    <g id="teacher" transform="translate(254.554 -3721.629)">
      <path id="Path_388" data-name="Path 388" d="M1.342,0H38.789a1.342,1.342,0,0,1,1.342,1.342V31.457A1.342,1.342,0,0,1,38.789,32.8H1.342A1.342,1.342,0,0,1,0,31.457V1.342A1.342,1.342,0,0,1,1.342,0Z" transform="translate(32.67 53.01)" fill="#dae9ff"/>
      <path id="Path_390" data-name="Path 390" d="M1.164,0H34.6a1.164,1.164,0,0,1,1.164,1.164v26.1A1.164,1.164,0,0,1,34.6,28.428H1.164A1.164,1.164,0,0,1,0,27.264V1.164A1.164,1.164,0,0,1,1.164,0Z" transform="translate(34.856 55.196)" fill="#175bc2"/>
      <path id="Path_369" data-name="Path 369" d="M108.849,110.274a9.577,9.577,0,1,1,9.576-9.568,9.578,9.578,0,0,1-9.576,9.568Zm0-18.838a9.262,9.262,0,1,0,9.261,9.27,9.263,9.263,0,0,0-9.261-9.27Z" transform="translate(-56.113 -32.109)" fill="#ec6869"/>
      <path id="Path_370" data-name="Path 370" d="M99.987,134.816a.157.157,0,0,1-.157-.157,1.457,1.457,0,0,1,.4-.956.158.158,0,0,1,.238.208,1.146,1.146,0,0,0-.315.748.157.157,0,0,1-.165.157ZM101.761,133a.157.157,0,0,1-.066-.3,11.054,11.054,0,0,1,1.641-.576.157.157,0,1,1,.082.3A15.719,15.719,0,0,0,101.761,133Zm15.117,0a16.025,16.025,0,0,0-1.657-.575.157.157,0,0,1,.082-.3,10.648,10.648,0,0,1,1.641.576.157.157,0,0,1-.065.3Zm-11.824-.932a.158.158,0,1,1-.027-.315c.546-.093,1.123-.168,1.712-.224a.158.158,0,1,1,.03.315C105.478,131.969,105.149,132.071,105.053,132.071Zm8.536,0c-.071,0-.611-.118-1.715-.222a.158.158,0,1,1,.03-.315c.59.055,1.165.131,1.712.224a.158.158,0,1,1-.027.315Zm-3.411-.326c-.052,0-.743-.03-1.71,0a.158.158,0,1,1-.009-.315c.57-.017,1.159-.017,1.724,0a.157.157,0,1,1,0,.315Zm8.473,3.071a.157.157,0,0,1-.157-.157,1.147,1.147,0,0,0-.323-.748.158.158,0,1,1,.238-.208,1.449,1.449,0,0,1,.4.956A.157.157,0,0,1,118.652,134.816Z" transform="translate(-56.584 -66.061)" fill="#ec6869"/>
      <path id="Path_371" data-name="Path 371" d="M109.321,154.342c-5.322,0-9.491-1.417-9.491-3.234a.157.157,0,0,1,.315,0c0,1.583,4.2,2.919,9.176,2.919s9.174-1.337,9.174-2.912a.157.157,0,1,1,.315,0C118.81,152.92,114.641,154.342,109.321,154.342Z" transform="translate(-56.584 -82.518)" fill="#ec6869"/>
      <path id="Path_372" data-name="Path 372" d="M139.235,233.867l-2.282-3.027a10.829,10.829,0,0,1-4.052-1.066c-1.557-1.074-4.006-2.442-3.712-3.278a.669.669,0,0,1,.356-.34c1.039-.559,2.127.885,4.208,1.08a16.284,16.284,0,0,0,1.764-.142c3.653-.269,4.171.011,4.436.2.425.3.258.411,1.394,1.849.5.63.937,1.124,1.236,1.449A5.6,5.6,0,0,1,139.235,233.867Z" transform="translate(-81.301 -145.773)" fill="#f5b493"/>
      <g id="Group_54" data-name="Group 54" transform="translate(83.504 71.656)" clip-path="url(#clip-path)">
        <path id="Path_373" data-name="Path 373" d="M355.49,171.42h5.126v11.207H355.49Z" transform="translate(-355.49 -171.42)" fill="#f5b493"/>
        <path id="Path_374" data-name="Path 374" d="M348.46,186.708a6.744,6.744,0,0,0,6.384-5.288l-6.1,2.549S348.674,184.661,348.46,186.708Z" transform="translate(-349.567 -179.845)" fill="#eba284"/>
      </g>
      <path id="Path_376" data-name="Path 376" d="M212.557,222.33a11.5,11.5,0,0,0-6.614,2.817c-1.99,1.861-1.91,3.263-7.492,11.968L188.944,226.2l-3.464,2.979a27.523,27.523,0,0,0,1.694,4.277c1.7,3.415,5.371,10.8,11.081,11.144,6.508.394,11.409-8.6,11.879-9.465a20.092,20.092,0,0,0,1.679-4.113,1.7,1.7,0,0,0,1.387-.077c1.983-1.216-.482-8.169-.644-8.617Z" transform="translate(-128.747 -142.658)" fill="#dae9ff"/>
      <path id="Path_377" data-name="Path 377" d="M310.42,247.091a142.926,142.926,0,0,0,.271-14.438c-.194-6.193-.657-8.3.99-10.41,3.261-4.165,12.251-5.077,15.854-1.679,2.727,2.573.716,6.091,1.532,26.527Z" transform="translate(-234.013 -139.418)" fill="#dae9ff"/>
      <path id="Path_378" data-name="Path 378" d="M328.335,111.375s.683,3.064,2.564,2.867,2.556-3.483,2.556-3.483c-2.2-1.1-4.168-1.179-4.847-.307a1.463,1.463,0,0,0-.272.923Zm9.116-13.043c-.039,4.063-2.861,6.788-4.094,7.792a10.481,10.481,0,0,1-2.223,1.627c-.905.472-3.326,1.765-5.07.641a6.082,6.082,0,0,1-1.82-2.757,8.339,8.339,0,0,1-.926-4.693c.157-1.264.463-2.034.539-2.861.187-2.047-.036-3.606,1.425-5a7.113,7.113,0,0,1,1.545-1.345,7.013,7.013,0,0,1,7.951.187C337.492,93.962,337.459,97.463,337.451,98.332Z" transform="translate(-244.832 -31.663)" fill="#f5b493"/>
      <path id="Path_379" data-name="Path 379" d="M310.23,133.681c-.472-.263-.71-.543-.716-.835-.013-.644,1.068-.713,1.409-2.571a.08.08,0,1,1,.157.028c-.35,1.9-1.417,2-1.406,2.54,0,.231.219.472.63.7a.079.079,0,0,1-.074.137Zm-.839-3.26c-.038.46-.315.813-.608.787s-.507-.417-.472-.877.315-.813.608-.787S309.43,129.962,309.39,130.422Zm4.633.387c-.038.46-.315.813-.608.787s-.509-.417-.472-.877.315-.813.608-.787S314.062,130.352,314.023,130.809Zm-3.425-2.748a.157.157,0,0,1-.1-.038,1.99,1.99,0,0,0-2.228-.211.158.158,0,1,1-.157-.274,2.336,2.336,0,0,1,2.589.246.157.157,0,0,1-.1.277Zm4.611.255a.158.158,0,0,1-.1-.036,2,2,0,0,0-2.231-.175.157.157,0,1,1-.161-.269,2.342,2.342,0,0,1,2.594.2.157.157,0,0,1-.1.279Zm-10.36,40.761q-.6,5.414-1.189,10.829h22.427a34.35,34.35,0,0,0-2.776-11.053A47.347,47.347,0,0,1,304.849,169.077Z" transform="translate(-228.318 -62.542)" fill="#175bc2"/>
      <path id="Path_380" data-name="Path 380" d="M352.189,215.27a14.686,14.686,0,0,1,7.275,3.622c1.123,1.076,2.132,2.52,3.767,7.607a39.985,39.985,0,0,1,1.92,7.017c.77,7.047-4.551,13.234-6.644,15.438a8.064,8.064,0,0,1-3.179-3.181l3.464-11.594-6.13-10.783Q352.432,219.334,352.189,215.27Zm-6.99-1.087a.842.842,0,0,0-.825.521c-.378.753-.8.787-1.009,1.329s-.03,1.046.315,1.97c.54,1.441.861,2.3,1.518,2.412.734.126,1.69-.709,2.223-2.047C347.423,218.372,345.78,217.331,345.2,214.183Z" transform="translate(-261.695 -135.793)" fill="#dae9ff"/>
      <path id="Path_381" data-name="Path 381" d="M369.61,215.945a6.78,6.78,0,0,0,2.9-4.579.655.655,0,0,1,.425-.049c.268.071.391.34.5.529.411.682.877.641,1.116,1.058.348.6-.158,1.507-.591,2.253-.63,1.1-1.765,3.053-2.935,2.8C370.108,217.757,369.7,216.293,369.61,215.945Z" transform="translate(-283.883 -133.365)" fill="#dae9ff"/>
      <g id="Group_55" data-name="Group 55" transform="translate(69.697 79.672)">
        <path id="Path_382" data-name="Path 382" d="M279.874,222.711a16.449,16.449,0,0,0,1.743,4.987l2.223-2.313-2.074,1.26A10.616,10.616,0,0,1,279.874,222.711Zm4.089,2.7q.6,1.28,1.206,2.56a10.042,10.042,0,0,0,3.735-5.639,14.531,14.531,0,0,1-3.439,4.9Zm-9.889,16.635.978-11.982s.442,4.252.442,5.966a44.408,44.408,0,0,1-.63,5.305Zm18.909-4.933.184-7.836.876,9.7Zm2.234,3.932a10.484,10.484,0,0,1,3.209-.332l-4.278,3.905ZM267.81,237.11l.792,3,1.3-6.351Zm17.359-9.141s-1.814,2.954-.5,7.607,3.642,10.12,2.068,14.292l-2.286.11-3.164-13.95,2.047-7.579,1.356-1.156Z" transform="translate(-267.81 -222.33)" fill="#175bc2"/>
      </g>
      <path id="Path_383" data-name="Path 383" d="M340.052,241.88l-2.3,2.29,1.112,1.379s-4.009,8.113-3.036,13.583-1.39,7.538-1.39,7.538l2.012,4.3,4.855-3.631s1.329-2.011,0-6.248-2-13.174-.989-15.783l.989-.863Z" transform="translate(-254.251 -159.129)" fill="#ec6869"/>
      <path id="Path_384" data-name="Path 384" d="M362.26,433.507l.65-2.979,2.428-2.288-1.7,2.633-.516,2.634Z" transform="translate(-277.69 -316.143)" fill="#dae9ff"/>
      <path id="Path_385" data-name="Path 385" d="M324.447,89.359s-2.371-6.015,1.653-5.387c0,0,9.969-2.294,12.481.238s.554,6.929.554,6.929,2.135,5.105-5.362,8.606c0,0,2.641-4.3,2.543-6.237s-2.56-1.792-3.423-3.959a8.917,8.917,0,0,1-.756-3.595s-2.9-.836-4.211.247a3.534,3.534,0,0,0-1.1,2.9Z" transform="translate(-245.247 -25.284)" fill="#175bc2"/>
      <path id="Path_386" data-name="Path 386" d="M397.147,141.8a1.818,1.818,0,1,1-.842-2.677A2,2,0,0,1,397.147,141.8Z" transform="translate(-304.135 -72.459)" fill="#f5b493"/>
      <path id="Path_387" data-name="Path 387" d="M399.06,145.319a.63.63,0,0,0,.543-.55c.03-.315-.561-.413-.567-.413a.079.079,0,0,1-.06-.109c.022-.052.542-1.279,1.39-1.235a.8.8,0,0,1,.72.89.079.079,0,0,1-.158,0c0-.028.017-.7-.57-.726-.526-.028-.965.576-1.2,1.05.2.05.63.2.6.564a.787.787,0,0,1-.679.69.082.082,0,1,1-.022-.162Z" transform="translate(-308.619 -75.83)" fill="#175bc2"/>
      <path id="Path_389" data-name="Path 389" d="M1.436,0c.793,0,1.436.306,1.436.683s-.643.683-1.436.683S0,1.061,0,.683.643,0,1.436,0Z" transform="translate(81.762 72.35)" fill="#dae9ff"/>
    </g>
  </g>
</svg>
